<?xml version="1.0" encoding="utf-8"?>
<!-- Generator: Adobe Illustrator 19.0.0, SVG Export Plug-In . SVG Version: 6.00 Build 0)  -->
<svg version="1.1" id="Layer_1" xmlns="http://www.w3.org/2000/svg" xmlns:xlink="http://www.w3.org/1999/xlink" x="0px" y="0px"
	 viewBox="0 0 500 500" enable-background="new 0 0 500 500" xml:space="preserve">
<rect id="XMLID_159_" y="0" fill="#4B89CC" width="500" height="500"/>
<path id="XMLID_158_" fill="#FFFFFF" d="M336.096,282.33c-50.83,0-92.2-41.277-92.346-92.073l0,0
	c0-44.027-35.819-79.846-79.846-79.846s-79.846,35.819-79.846,79.846h-12.5c0-50.92,41.426-92.346,92.346-92.346
	c50.83,0,92.2,41.277,92.346,92.073l0,0c0,44.027,35.819,79.846,79.846,79.846s79.846-35.819,79.846-79.846h12.5
	C428.442,240.905,387.017,282.33,336.096,282.33z"/>
<rect id="XMLID_157_" x="305.938" y="122.5" fill="#FFFFFF" width="17.812" height="27.812"/>
<rect id="XMLID_156_" x="342.5" y="122.5" fill="#FFFFFF" width="17.812" height="27.812"/>
<g id="XMLID_127_">
	<path id="XMLID_154_" fill="#FFFFFF" d="M51.123,344.59c-1.68,0-2.627-0.918-2.842-2.754l-0.82-6.416
		c-0.273-2.285-0.41-4.424-0.41-6.416c0-0.547,0.034-1.475,0.103-2.783s0.103-2.236,0.103-2.783c0-4.219-0.781-6.328-2.344-6.328
		c-2.188,0-4.277,1.299-6.27,3.896c-1.797,2.363-3.203,5.352-4.219,8.965c-0.039,0.762-0.127,1.719-0.264,2.871
		c-0.117,0.977-0.176,1.924-0.176,2.842c0,0.586,0.059,1.465,0.176,2.637s0.176,2.051,0.176,2.637c0,0.879-0.269,1.592-0.806,2.139
		s-1.226,0.82-2.065,0.82c-0.859,0-1.553-0.273-2.08-0.82s-0.791-1.26-0.791-2.139c0-0.586-0.063-1.465-0.19-2.637
		s-0.19-2.051-0.19-2.637c0-2.012,0.142-4.8,0.425-8.364s0.425-6.353,0.425-8.364c0-0.625-0.034-1.553-0.103-2.783
		s-0.103-2.158-0.103-2.783c0-0.84,0.278-1.528,0.835-2.065s1.245-0.806,2.065-0.806c1.797,0,2.783,1.27,2.959,3.809l0.088,3.428
		c3.281-4.375,6.65-6.562,10.107-6.562c3.125,0,5.303,1.377,6.533,4.131c0.84,1.836,1.299,4.551,1.377,8.145v2.959l-0.029,2.725
		c0,1.621,0.21,3.716,0.63,6.284s0.63,4.653,0.63,6.255c0,0.859-0.278,1.558-0.835,2.095S51.963,344.59,51.123,344.59z"/>
	<path id="XMLID_151_" fill="#FFFFFF" d="M74.232,329.209c0,1.172,0.034,2.925,0.103,5.259s0.103,4.087,0.103,5.259
		c0,0.859-0.264,1.562-0.791,2.109s-1.221,0.82-2.08,0.82c-0.84,0-1.528-0.273-2.065-0.82s-0.806-1.25-0.806-2.109
		c0-1.172-0.034-2.925-0.103-5.259s-0.103-4.087-0.103-5.259c0-1.836,0.098-4.126,0.293-6.87s0.293-5.034,0.293-6.87
		c0-0.879,0.269-1.592,0.806-2.139s1.226-0.82,2.065-0.82s1.528,0.273,2.065,0.82s0.806,1.26,0.806,2.139
		c0,1.836-0.098,4.126-0.293,6.87S74.232,327.373,74.232,329.209z M72.914,305.42c-0.938,0-1.748-0.332-2.432-0.996
		s-1.025-1.465-1.025-2.402s0.342-1.738,1.025-2.402s1.494-0.996,2.432-0.996s1.743,0.332,2.417,0.996s1.011,1.465,1.011,2.402
		s-0.337,1.738-1.011,2.402S73.851,305.42,72.914,305.42z"/>
	<path id="XMLID_148_" fill="#FFFFFF" d="M113.866,344.59c-1.68,0-2.627-0.918-2.842-2.754l-0.82-6.416
		c-0.273-2.285-0.41-4.424-0.41-6.416c0-0.547,0.034-1.475,0.103-2.783s0.103-2.236,0.103-2.783c0-4.219-0.781-6.328-2.344-6.328
		c-2.188,0-4.277,1.299-6.27,3.896c-1.797,2.363-3.203,5.352-4.219,8.965c-0.039,0.762-0.127,1.719-0.264,2.871
		c-0.117,0.977-0.176,1.924-0.176,2.842c0,0.586,0.059,1.465,0.176,2.637s0.176,2.051,0.176,2.637c0,0.879-0.269,1.592-0.806,2.139
		s-1.226,0.82-2.065,0.82c-0.859,0-1.553-0.273-2.08-0.82s-0.791-1.26-0.791-2.139c0-0.586-0.063-1.465-0.19-2.637
		s-0.19-2.051-0.19-2.637c0-2.012,0.142-4.8,0.425-8.364s0.425-6.353,0.425-8.364c0-0.625-0.034-1.553-0.103-2.783
		s-0.103-2.158-0.103-2.783c0-0.84,0.278-1.528,0.835-2.065s1.245-0.806,2.065-0.806c1.797,0,2.783,1.27,2.959,3.809l0.088,3.428
		c3.281-4.375,6.65-6.562,10.107-6.562c3.125,0,5.303,1.377,6.533,4.131c0.84,1.836,1.299,4.551,1.377,8.145v2.959l-0.029,2.725
		c0,1.621,0.21,3.716,0.63,6.284s0.63,4.653,0.63,6.255c0,0.859-0.278,1.558-0.835,2.095S114.706,344.59,113.866,344.59z
		 M99.979,296.982c1.953,0,3.525,0.566,4.717,1.699l2.432,3.105c0.918,1.133,2.012,1.699,3.281,1.699
		c1.113,0,1.943-0.361,2.49-1.084l1.348-2.578l0.586-1.729c0.273-0.566,0.859-0.85,1.758-0.85c1.465,0,2.197,0.723,2.197,2.168
		c0,0.703-0.42,1.885-1.26,3.545c-0.781,1.562-1.455,2.637-2.021,3.223c-1.094,1.113-2.49,1.67-4.189,1.67
		c-2.559,0-4.561-0.557-6.006-1.67c-0.527-0.41-1.387-1.455-2.578-3.135c-0.82-1.113-1.738-1.67-2.754-1.67
		c-0.605,0-1.147,0.112-1.626,0.337s-0.894,0.562-1.245,1.011l-1.289,2.49c-0.488,0.879-1.123,1.318-1.904,1.318
		c-0.605,0-1.133-0.2-1.582-0.601s-0.674-0.903-0.674-1.509c0-0.215,0.029-0.439,0.088-0.674c0.547-1.992,1.533-3.604,2.959-4.834
		C96.229,297.627,97.987,296.982,99.979,296.982z"/>
	<path id="XMLID_145_" fill="#FFFFFF" d="M141.047,344.238c-3.281,0-6.104-1.211-8.467-3.633c-2.637-2.695-4.023-6.318-4.16-10.869
		c-0.117-4.414,0.996-8.301,3.34-11.66c2.734-3.965,6.543-5.947,11.426-5.947c3.906,0,6.865,1.787,8.877,5.361
		c1.602,2.891,2.373,6.367,2.314,10.43c-0.059,4.336-1.191,8.037-3.398,11.104C148.479,342.5,145.168,344.238,141.047,344.238z
		 M142.805,318.076c-2.871-0.02-5.107,1.348-6.709,4.102c-1.27,2.207-1.904,4.727-1.904,7.559s0.771,5.039,2.314,6.621
		c1.289,1.309,2.803,1.963,4.541,1.963c2.031,0,3.779-0.742,5.244-2.227c1.66-1.641,2.539-3.857,2.637-6.65
		C149.202,321.885,147.161,318.096,142.805,318.076z"/>
	<path id="XMLID_143_" fill="#FFFFFF" d="M219.611,316.377l-10.137,21.914c-2.5,5.332-4.414,9.795-5.742,13.389l-1.934,5.684
		c-0.508,1.406-1.387,2.109-2.637,2.109c-0.82,0-1.528-0.269-2.124-0.806s-0.894-1.206-0.894-2.007
		c0-1.953,2.109-7.607,6.328-16.963l-10.488-20.186l-1.318-2.139c-0.527-0.898-0.791-1.65-0.791-2.256
		c0-0.801,0.308-1.504,0.923-2.109s1.304-0.908,2.065-0.908c0.898,0,1.592,0.342,2.08,1.025c3.32,4.609,6.885,11.172,10.693,19.688
		l4.336-10.107c1.562-3.496,3.066-6.504,4.512-9.023c0.625-1.094,1.445-1.641,2.461-1.641c0.801,0,1.509,0.283,2.124,0.85
		s0.923,1.24,0.923,2.021C219.991,315.342,219.865,315.83,219.611,316.377z"/>
	<path id="XMLID_141_" fill="#FFFFFF" d="M270.986,344.355c-4.004,0-7.344-1.211-10.02-3.633c-2.812-2.539-4.219-5.889-4.219-10.049
		c0-3.965,1.318-8.057,3.955-12.275c2.93-4.688,6.23-7.031,9.902-7.031c1.914,0,4.053,0.449,6.416,1.348
		c2.988,1.152,4.482,2.559,4.482,4.219c0,0.742-0.244,1.401-0.732,1.978s-1.094,0.864-1.816,0.864c-0.566,0-1.06-0.171-1.479-0.513
		s-0.825-0.679-1.216-1.011c-1.152-0.918-3.037-1.377-5.654-1.377c-1.992,0-3.965,1.777-5.918,5.332
		c-1.777,3.262-2.666,6.084-2.666,8.467c0,2.578,0.879,4.609,2.637,6.094c1.641,1.387,3.75,2.08,6.328,2.08
		c1.172,0,2.422-0.312,3.75-0.938l3.398-1.816c0.586-0.312,1.006-0.469,1.26-0.469c0.723,0,1.348,0.288,1.875,0.864
		s0.791,1.235,0.791,1.978c0,1.426-1.504,2.803-4.512,4.131C274.912,343.77,272.725,344.355,270.986,344.355z"/>
	<path id="XMLID_137_" fill="#FFFFFF" d="M319.146,344.443c-0.371,0-1.045-0.43-2.021-1.289c-0.879-0.801-1.533-1.514-1.963-2.139
		c-1.875,1.016-3.525,1.782-4.951,2.3s-2.617,0.776-3.574,0.776c-4.57,0-7.9-1.289-9.99-3.867
		c-1.973-2.422-2.959-6.133-2.959-11.133c0-4.727,1.626-8.77,4.878-12.129s7.134-5.039,11.646-5.039
		c1.699,0,3.604,0.439,5.713,1.318c2.656,1.094,3.984,2.412,3.984,3.955c0,0.527-0.195,0.996-0.586,1.406
		c-0.195,0.742-0.347,1.963-0.454,3.662s-0.171,3.877-0.19,6.533c-0.02,2.422,0.146,4.336,0.498,5.742
		c0.195,0.859,0.811,2.578,1.846,5.156c0.137,0.352,0.361,0.869,0.674,1.553l0.176,0.498c0,0.781-0.273,1.426-0.82,1.934
		S319.868,344.443,319.146,344.443z M313.052,324.082c0-0.84,0.054-1.753,0.161-2.739s0.269-2.036,0.483-3.149
		c-0.723-0.371-1.343-0.645-1.86-0.82s-0.933-0.264-1.245-0.264c-3.027,0-5.64,1.235-7.837,3.706s-3.296,5.317-3.296,8.54
		c0,3.203,0.566,5.605,1.699,7.207s2.832,2.402,5.098,2.402c1.875,0,3.467-0.342,4.775-1.025c0.703-0.371,1.689-1.113,2.959-2.227
		C313.364,330.537,313.052,326.66,313.052,324.082z M308.833,307.734c-0.703,0-1.323-0.273-1.86-0.82s-0.806-1.172-0.806-1.875
		c0-0.664,0.303-1.299,0.908-1.904c0.84-0.82,2.119-2.373,3.838-4.658c1.289-1.68,2.725-3.076,4.307-4.189
		c0.527-0.371,1.045-0.557,1.553-0.557c0.703,0,1.318,0.278,1.846,0.835s0.791,1.187,0.791,1.89c0,0.781-0.371,1.465-1.113,2.051
		c-1.367,1.094-2.686,2.51-3.955,4.248c-1.328,1.836-2.588,3.252-3.779,4.248C310.015,307.49,309.438,307.734,308.833,307.734z"/>
	<path id="XMLID_135_" fill="#FFFFFF" d="M356.257,344.59c-1.68,0-2.627-0.918-2.842-2.754l-0.82-6.416
		c-0.273-2.285-0.41-4.424-0.41-6.416c0-0.547,0.034-1.475,0.103-2.783s0.103-2.236,0.103-2.783c0-4.219-0.781-6.328-2.344-6.328
		c-2.188,0-4.277,1.299-6.27,3.896c-1.797,2.363-3.203,5.352-4.219,8.965c-0.039,0.762-0.127,1.719-0.264,2.871
		c-0.117,0.977-0.176,1.924-0.176,2.842c0,0.586,0.059,1.465,0.176,2.637s0.176,2.051,0.176,2.637c0,0.879-0.269,1.592-0.806,2.139
		s-1.226,0.82-2.065,0.82c-0.859,0-1.553-0.273-2.08-0.82s-0.791-1.26-0.791-2.139c0-0.586-0.063-1.465-0.19-2.637
		s-0.19-2.051-0.19-2.637c0-2.012,0.142-4.8,0.425-8.364s0.425-6.353,0.425-8.364c0-0.625-0.034-1.553-0.103-2.783
		s-0.103-2.158-0.103-2.783c0-0.84,0.278-1.528,0.835-2.065s1.245-0.806,2.065-0.806c1.797,0,2.783,1.27,2.959,3.809l0.088,3.428
		c3.281-4.375,6.65-6.562,10.107-6.562c3.125,0,5.303,1.377,6.533,4.131c0.84,1.836,1.299,4.551,1.377,8.145v2.959l-0.029,2.725
		c0,1.621,0.21,3.716,0.63,6.284s0.63,4.653,0.63,6.255c0,0.859-0.278,1.558-0.835,2.095S357.097,344.59,356.257,344.59z"/>
	<path id="XMLID_133_" fill="#FFFFFF" d="M385.696,344.355c-4.004,0-7.344-1.211-10.02-3.633c-2.812-2.539-4.219-5.889-4.219-10.049
		c0-3.965,1.318-8.057,3.955-12.275c2.93-4.688,6.23-7.031,9.902-7.031c1.914,0,4.053,0.449,6.416,1.348
		c2.988,1.152,4.482,2.559,4.482,4.219c0,0.742-0.244,1.401-0.732,1.978s-1.094,0.864-1.816,0.864c-0.566,0-1.06-0.171-1.479-0.513
		s-0.825-0.679-1.216-1.011c-1.152-0.918-3.037-1.377-5.654-1.377c-1.992,0-3.965,1.777-5.918,5.332
		c-1.777,3.262-2.666,6.084-2.666,8.467c0,2.578,0.879,4.609,2.637,6.094c1.641,1.387,3.75,2.08,6.328,2.08
		c1.172,0,2.422-0.312,3.75-0.938l3.398-1.816c0.586-0.312,1.006-0.469,1.26-0.469c0.723,0,1.348,0.288,1.875,0.864
		s0.791,1.235,0.791,1.978c0,1.426-1.504,2.803-4.512,4.131C389.622,343.77,387.434,344.355,385.696,344.355z"/>
	<path id="XMLID_130_" fill="#FFFFFF" d="M424.216,343.857c-4.414,0-7.988-1.104-10.723-3.311
		c-2.988-2.441-4.482-5.859-4.482-10.254c0-5.078,1.23-9.336,3.691-12.773c2.676-3.75,6.25-5.625,10.723-5.625
		c3.242,0,5.889,0.547,7.939,1.641c2.52,1.348,3.779,3.418,3.779,6.211c0,1.953-1.104,3.73-3.311,5.332
		c-0.977,0.703-3.047,1.797-6.211,3.281l-11.191,5.303c1.094,1.621,2.456,2.842,4.087,3.662s3.53,1.23,5.698,1.23
		c1.348,0,2.93-0.254,4.746-0.762c2.305-0.645,3.789-1.489,4.453-2.534s1.377-1.567,2.139-1.567c0.684,0,1.294,0.259,1.831,0.776
		s0.806,1.118,0.806,1.802c0,2.168-1.748,4.033-5.244,5.596C429.958,343.193,427.048,343.857,424.216,343.857z M423.425,317.168
		c-2.383,0-4.365,0.923-5.947,2.769s-2.764,4.624-3.545,8.335l8.994-4.277c3.535-1.719,6.055-3.213,7.559-4.482
		C428.806,317.949,426.453,317.168,423.425,317.168z"/>
	<path id="XMLID_128_" fill="#FFFFFF" d="M473.457,320.859c-0.137,2.441-1.113,3.662-2.93,3.662c-1.68,0-2.52-0.967-2.52-2.9
		c0-0.371-0.029-1.055-0.088-2.051l-0.088-2.461c-3.086,0.371-5.557,1.24-7.412,2.607c-1.738,1.27-3.184,3.184-4.336,5.742
		l0.059,16.055c0,1.973-0.967,2.959-2.9,2.959c-1.719,0-2.578-0.986-2.578-2.959v-20.566c0-0.645,0.024-1.611,0.073-2.9
		s0.073-2.256,0.073-2.9c0-1.973,0.859-2.959,2.578-2.959c1.914,0,2.881,1.621,2.9,4.863c3.75-3.613,7.91-5.42,12.48-5.42
		c1.582,0,2.764,0.596,3.545,1.787s1.172,2.988,1.172,5.391C473.486,319.824,473.477,320.508,473.457,320.859z"/>
</g>
<g id="XMLID_105_">
	<path id="XMLID_125_" fill="#FFFFFF" d="M87.133,369.508c-0.176,0-0.361-0.039-0.557-0.117c-1.211-0.449-2.812-0.674-4.805-0.674
		c-0.645,0-1.399,0.046-2.263,0.139s-1.833,0.237-2.908,0.432l-0.029,6.328c1.885-0.498,3.301-0.747,4.248-0.747
		c1.504,0,3.062,0.088,4.673,0.264c0.918,0.098,1.377,0.596,1.377,1.494c0,0.439-0.142,0.803-0.425,1.091s-0.635,0.432-1.055,0.432
		c-0.508,0-1.27-0.044-2.285-0.132s-1.777-0.132-2.285-0.132c-0.664,0-2.1,0.283-4.307,0.85l-0.132,10.078
		c0,0.42-0.137,0.774-0.41,1.062s-0.62,0.432-1.04,0.432s-0.769-0.144-1.047-0.432s-0.417-0.642-0.417-1.062
		c0-1.924,0.037-4.812,0.11-8.665s0.11-6.741,0.11-8.665c0-0.43-0.007-1.077-0.022-1.941s-0.022-1.511-0.022-1.941
		s0.134-0.791,0.403-1.084s0.618-0.439,1.047-0.439c0.322,0,0.61,0.088,0.864,0.264c1.211-0.215,2.3-0.374,3.267-0.476
		s1.816-0.154,2.549-0.154c1.123,0,2.407,0.161,3.853,0.483c1.963,0.449,2.944,1.035,2.944,1.758c0,0.391-0.127,0.737-0.381,1.04
		C87.904,369.337,87.552,369.508,87.133,369.508z"/>
	<path id="XMLID_123_" fill="#FFFFFF" d="M121.711,389.342c-3.037,0-5.303-0.874-6.797-2.622c-1.211-1.406-1.973-3.486-2.285-6.24
		c-0.146-1.24-0.22-3.716-0.22-7.427c0-1.367,0.029-2.471,0.088-3.311c0.059-0.889,0.146-1.509,0.264-1.86
		c0.244-0.713,0.684-1.069,1.318-1.069c0.898,0,1.348,0.825,1.348,2.476v8.599c0,5.918,2.07,8.877,6.211,8.877
		c3.896,0,5.845-4.98,5.845-14.941c0-0.371,0-0.85,0-1.436c-0.01-0.586-0.015-0.977-0.015-1.172c0-0.605,0.107-1.138,0.322-1.597
		c0.273-0.586,0.679-0.879,1.216-0.879c0.977,0,1.465,0.669,1.465,2.007c0,0.4,0.005,1.006,0.015,1.816c0,0.811,0,1.416,0,1.816
		C130.486,383.688,127.561,389.342,121.711,389.342z"/>
	<path id="XMLID_121_" fill="#FFFFFF" d="M175.817,385.504c0,0.469-0.078,1.25-0.234,2.344c-0.156,0.986-0.679,1.479-1.567,1.479
		c-0.537,0-1.177-0.352-1.919-1.055c-3.975-3.76-8.535-9.185-13.682-16.274l-0.073,3.325l-0.044,3.34
		c0,0.811,0.017,2.026,0.051,3.647s0.051,2.842,0.051,3.662c0,2.627-0.508,3.94-1.523,3.94c-0.537,0-0.962-0.171-1.274-0.513
		c-0.283-0.303-0.425-0.664-0.425-1.084c0-0.41,0.032-1.03,0.095-1.86s0.095-1.45,0.095-1.86c0-0.605,0.02-1.511,0.059-2.717
		s0.059-2.112,0.059-2.717c0-0.645-0.015-1.619-0.044-2.922s-0.044-2.278-0.044-2.922c0-0.615-0.059-1.531-0.176-2.747
		s-0.176-2.131-0.176-2.747c0-0.449,0.193-0.859,0.579-1.23s0.823-0.557,1.311-0.557c0.518,0,1.157,0.566,1.919,1.699
		c2.432,3.643,4.619,6.67,6.562,9.082c2.314,2.861,4.854,5.596,7.617,8.203c0.029-0.42,0.029-1.04,0-1.86l-0.044-1.846
		c0-4.287-0.166-7.7-0.498-10.239c-0.039-0.254-0.171-0.767-0.396-1.538c-0.195-0.664-0.293-1.182-0.293-1.553
		c0-1.133,0.518-1.699,1.553-1.699c1.699,0,2.549,3.169,2.549,9.507c0,1.084-0.015,2.703-0.044,4.856
		S175.817,384.42,175.817,385.504z"/>
	<path id="XMLID_118_" fill="#FFFFFF" d="M213.912,388.654c-1.514,1.035-3.687,1.553-6.519,1.553c-0.713,0-1.528-0.112-2.446-0.337
		c-1.104-0.264-1.934-0.605-2.49-1.025h-0.146c-0.42,0-0.771-0.146-1.055-0.439s-0.425-0.649-0.425-1.069
		c0-1.025,0.046-2.561,0.139-4.607s0.139-3.582,0.139-4.607c0-1.143-0.022-2.849-0.066-5.12s-0.066-3.977-0.066-5.12
		c0-0.4,0.205-0.82,0.615-1.26s0.82-0.659,1.23-0.659c0.234,0,1.016,0.327,2.344,0.981c1.504,0.732,2.373,1.138,2.607,1.216
		c2.773,0.947,5.137,2.402,7.09,4.365c2.295,2.314,3.442,4.858,3.442,7.632c0,1.67-0.393,3.271-1.179,4.805
		S215.27,387.726,213.912,388.654z M210.836,373.156c-0.996-0.654-3.296-1.777-6.899-3.369l0.073,4.219l0.044,4.204l-0.234,7.998
		c0.068,0.029,0.171,0.093,0.308,0.19c0.859,0.576,1.943,0.864,3.252,0.864c2.227,0,3.848-0.342,4.863-1.025
		c0.947-0.645,1.702-1.511,2.263-2.6s0.842-2.224,0.842-3.406C215.348,377.477,213.844,375.118,210.836,373.156z"/>
	<path id="XMLID_115_" fill="#FFFFFF" d="M259.111,389.196c-0.898,0-1.68-1.152-2.344-3.457c-0.254-0.879-0.571-2.417-0.952-4.614
		c-0.996,0.137-2.3,0.381-3.911,0.732l-3.896,0.806c-0.488,1.279-1.323,3.149-2.505,5.61c-0.312,0.547-0.737,0.82-1.274,0.82
		c-0.391,0-0.74-0.142-1.047-0.425s-0.461-0.635-0.461-1.055c0-0.469,0.737-2.251,2.212-5.347c-0.166-0.254-0.249-0.547-0.249-0.879
		c0-0.791,0.479-1.299,1.436-1.523c1.113-2.09,2.52-4.492,4.219-7.207c2.314-3.701,3.755-5.552,4.321-5.552
		c0.771,0,1.299,0.537,1.582,1.611l0.923,4.922l2.183,10.181l0.835,2.314c0.283,0.791,0.425,1.318,0.425,1.582
		c0,0.42-0.151,0.771-0.454,1.055S259.502,389.196,259.111,389.196z M253.94,372.452l-4.189,6.753
		c1.182-0.303,2.974-0.669,5.376-1.099L253.94,372.452z"/>
	<path id="XMLID_113_" fill="#FFFFFF" d="M299.916,372.321c-0.625,0-1.094-0.366-1.406-1.099c-0.273-0.625-0.527-1.006-0.762-1.143
		c-0.205-0.107-0.713-0.161-1.523-0.161c-1.416,0-2.988,1.084-4.717,3.252c-2.344,2.91-3.516,5.669-3.516,8.276
		c0,1.26,0.405,2.344,1.216,3.252c0.83,0.938,1.831,1.406,3.003,1.406c1.006,0,2.017-0.259,3.032-0.776
		c0.566-0.293,1.436-0.869,2.607-1.729c0.557-0.41,0.977-0.615,1.26-0.615c0.42,0,0.771,0.159,1.055,0.476s0.425,0.671,0.425,1.062
		c0,0.439-0.186,0.825-0.557,1.157c-2.578,2.285-5.186,3.428-7.822,3.428c-2.021,0-3.73-0.776-5.127-2.329
		c-1.348-1.504-2.021-3.281-2.021-5.332c0-3.311,1.387-6.704,4.16-10.181c2.314-2.9,4.648-4.351,7.002-4.351
		c0.479,0,0.908,0.022,1.289,0.066s0.718,0.115,1.011,0.212c0.342-0.498,0.786-0.747,1.333-0.747c0.674,0,1.099,0.444,1.274,1.333
		c0.156,0.791,0.234,1.763,0.234,2.915c0,0.4-0.107,0.752-0.322,1.055C300.78,372.13,300.404,372.321,299.916,372.321z"/>
	<path id="XMLID_111_" fill="#FFFFFF" d="M336.838,370.504c-0.625,0-1.411-0.063-2.358-0.19l-2.358-0.308
		c-0.225,2.842-0.337,5.557-0.337,8.145c0,0.684,0.02,1.528,0.059,2.534s0.059,1.851,0.059,2.534c0,0.918-0.034,1.753-0.103,2.505
		l4.614-0.059c0.41,0,0.754,0.144,1.033,0.432s0.417,0.642,0.417,1.062c0,0.43-0.139,0.789-0.417,1.077s-0.623,0.432-1.033,0.432
		c-0.547,0-1.367,0.012-2.461,0.037s-1.914,0.037-2.461,0.037c-0.645,0-1.609,0.09-2.893,0.271s-2.253,0.271-2.908,0.271
		c-0.41,0-0.754-0.144-1.033-0.432s-0.417-0.642-0.417-1.062s0.139-0.776,0.417-1.069s0.623-0.439,1.033-0.439
		c0.635,0,1.685-0.103,3.149-0.308c0.098-0.791,0.146-1.694,0.146-2.71c0-0.674-0.032-1.497-0.095-2.468s-0.095-1.79-0.095-2.454
		c0-2.256,0.137-5.073,0.41-8.452l-1.904,0.059l-1.904,0.044c-0.42,0-0.771-0.142-1.055-0.425s-0.425-0.645-0.425-1.084
		c0-0.908,0.459-1.406,1.377-1.494c0.791-0.078,2.271-0.117,4.438-0.117c1.943,0,4.38,0.21,7.31,0.63
		c0.869,0.127,1.304,0.649,1.304,1.567c0,0.459-0.166,0.825-0.498,1.099C337.556,370.392,337.219,370.504,336.838,370.504z"/>
	<path id="XMLID_108_" fill="#FFFFFF" d="M371.959,389.65c-2.754,0-5.088-0.825-7.002-2.476c-2.031-1.758-3.047-4.023-3.047-6.797
		c0-3.379,1.001-6.45,3.003-9.214c2.236-3.066,5.024-4.6,8.364-4.6c3.213,0,5.601,0.723,7.163,2.168
		c1.631,1.504,2.446,3.877,2.446,7.119c0,3.379-0.918,6.426-2.754,9.141C378.024,388.097,375.299,389.65,371.959,389.65z
		 M373.278,369.567c-2.393,0-4.419,1.191-6.079,3.574c-1.533,2.188-2.3,4.6-2.3,7.236c0,1.885,0.698,3.418,2.095,4.6
		c1.338,1.113,2.993,1.67,4.966,1.67c2.373,0,4.331-1.196,5.874-3.589c1.377-2.139,2.065-4.541,2.065-7.207
		c0-2.334-0.522-3.975-1.567-4.922C377.335,370.021,375.651,369.567,373.278,369.567z"/>
	<path id="XMLID_106_" fill="#FFFFFF" d="M427.736,385.504c0,0.469-0.078,1.25-0.234,2.344c-0.156,0.986-0.679,1.479-1.567,1.479
		c-0.537,0-1.177-0.352-1.919-1.055c-3.975-3.76-8.535-9.185-13.682-16.274l-0.073,3.325l-0.044,3.34
		c0,0.811,0.017,2.026,0.051,3.647s0.051,2.842,0.051,3.662c0,2.627-0.508,3.94-1.523,3.94c-0.537,0-0.962-0.171-1.274-0.513
		c-0.283-0.303-0.425-0.664-0.425-1.084c0-0.41,0.032-1.03,0.095-1.86s0.095-1.45,0.095-1.86c0-0.605,0.02-1.511,0.059-2.717
		s0.059-2.112,0.059-2.717c0-0.645-0.015-1.619-0.044-2.922s-0.044-2.278-0.044-2.922c0-0.615-0.059-1.531-0.176-2.747
		s-0.176-2.131-0.176-2.747c0-0.449,0.193-0.859,0.579-1.23s0.823-0.557,1.311-0.557c0.518,0,1.157,0.566,1.919,1.699
		c2.432,3.643,4.619,6.67,6.562,9.082c2.314,2.861,4.854,5.596,7.617,8.203c0.029-0.42,0.029-1.04,0-1.86l-0.044-1.846
		c0-4.287-0.166-7.7-0.498-10.239c-0.039-0.254-0.171-0.767-0.396-1.538c-0.195-0.664-0.293-1.182-0.293-1.553
		c0-1.133,0.518-1.699,1.553-1.699c1.699,0,2.549,3.169,2.549,9.507c0,1.084-0.015,2.703-0.044,4.856
		S427.736,384.42,427.736,385.504z"/>
</g>
<g id="XMLID_160_">
</g>
<g id="XMLID_161_">
</g>
<g id="XMLID_162_">
</g>
<g id="XMLID_163_">
</g>
<g id="XMLID_164_">
</g>
<g id="XMLID_165_">
</g>
<g id="XMLID_166_">
</g>
<g id="XMLID_167_">
</g>
<g id="XMLID_168_">
</g>
<g id="XMLID_169_">
</g>
<g id="XMLID_170_">
</g>
<g id="XMLID_171_">
</g>
<g id="XMLID_172_">
</g>
<g id="XMLID_173_">
</g>
<g id="XMLID_174_">
</g>
</svg>
